<?xml version="1.0" encoding="iso-8859-1"?>
<!-- Generator: Adobe Illustrator 19.0.0, SVG Export Plug-In . SVG Version: 6.00 Build 0)  -->
<svg version="1.1" id="Capa_1" xmlns="http://www.w3.org/2000/svg" xmlns:xlink="http://www.w3.org/1999/xlink" x="0px" y="0px"
	 viewBox="0 0 512 512" style="enable-background:new 0 0 512 512;" xml:space="preserve">
<g>
	<path style="fill:#D65245;" d="M377.492,329.763l48.388-13.147c9.52-1.909,18.788,4.261,20.697,13.789
		c0.226,1.137,0.347,2.3,0.338,3.454l0,0c0,7.854-5.207,14.744-12.757,16.905l-63.176,16.601l-20.975,36.881l91.561-21.851
		c23.448-5.406,40.057-26.286,40.057-50.35l0,0c0-28.542-23.144-51.677-51.677-51.677c-5.554,0-11.073,0.894-16.341,2.655
		l-36.118,12.028V329.763z"/>
	<path style="fill:#D65245;" d="M30.373,459.932h399.186l0,0l0,0c0,28.759-23.309,52.068-52.068,52.068l0,0H82.441
		C53.682,512,30.373,488.691,30.373,459.932L30.373,459.932L30.373,459.932L30.373,459.932z"/>
</g>
<path style="fill:#E8594A;" d="M56.407,260.339v26.034C56.389,358.2,94.998,424.5,157.479,459.932h144.974
	C364.934,424.5,403.543,358.2,403.525,286.373v-26.034H56.407z"/>
<path style="fill:#D65245;" d="M316.746,260.339v26.034c0.017,71.828-38.591,138.127-101.072,173.559h86.78
	C364.935,424.5,403.543,358.2,403.525,286.373v-26.034H316.746z"/>
<path style="fill:#F0E4D6;" d="M342.78,0v8.678c0,19.17,15.542,34.712,34.712,34.712h4.339c31.154,0,56.407,25.253,56.407,56.407
	l0,0c0,31.154-25.253,56.407-56.407,56.407H342.78c-11.984,0-21.695,9.711-21.695,21.695l0,0c0,11.984,9.711,21.695,21.695,21.695
	l0,0c19.17,0,34.712,15.542,34.712,34.712H82.441c0-57.509,46.627-104.136,104.136-104.136h95.458
	c19.17,0,34.712-15.542,34.712-34.712l0,0c0-19.17-15.542-34.712-34.712-34.712l0,0c-19.17,0-34.712-15.542-34.712-34.712V0H342.78z
	"/>
<g>
	<path style="fill:#F77A6D;" d="M129.085,397.286c-25.565-20.463-36.977-51.703-42.036-74.301l16.931-3.801
		c4.46,19.89,14.31,47.234,35.953,64.547L129.085,397.286z"/>
	<path style="fill:#F77A6D;" d="M83.855,304.831c-0.824-6.118-1.302-12.279-1.415-18.458h17.356
		c0.121,5.441,0.547,10.873,1.276,16.263L83.855,304.831z"/>
</g>
<g>
</g>
<g>
</g>
<g>
</g>
<g>
</g>
<g>
</g>
<g>
</g>
<g>
</g>
<g>
</g>
<g>
</g>
<g>
</g>
<g>
</g>
<g>
</g>
<g>
</g>
<g>
</g>
<g>
</g>
</svg>
